<?xml version="1.0" encoding="utf-8"?>
<!-- Generator: Adobe Illustrator 24.1.0, SVG Export Plug-In . SVG Version: 6.00 Build 0)  -->
<svg version="1.1" id="Layer_1" xmlns="http://www.w3.org/2000/svg" xmlns:xlink="http://www.w3.org/1999/xlink" x="0px" y="0px"
	 viewBox="0 0 104.06 99.67" style="enable-background:new 0 0 104.06 99.67;" xml:space="preserve">
<style type="text/css">
	.st0{fill:#794B98;}
</style>
<g>
	<g>
		<path class="st0" d="M86.42,76.01c1.86-1.3,3.52-2.79,3.93-5.13c0.22-1.28,0.16-2.62,0.1-3.93c-0.12-2.38-0.42-4.74-0.48-7.12
			c-0.06-2.3,0.48-4.5,1.53-6.57c1.7-3.34,4.81-4.05,7.31-3.48c2,0.46,3.26,2.01,3.53,4.17c0.33,2.69-0.84,4.65-3.42,5.28
			c-2.3,0.57-2.96,1.81-2.99,4.09c-0.02,1.69,0.18,3.38,0.23,5.08c0.06,1.84,0.15,3.7-0.37,5.48c-0.84,2.87-2.67,4.98-5.17,6.57
			c-0.43,0.27-0.86,0.54-1.32,0.74c-0.35,0.16-0.4,0.34-0.35,0.71c0.29,2.02,0.56,4.04,0.18,6.08c-0.45,2.43-1.55,4.49-3.51,6.03
			c-0.95,0.74-1.94,1.44-2.98,2.06c-1.21,0.72-2.47,0.67-3.67-0.08c-0.39,0.5-0.74,1.02-1.16,1.48c-1.18,1.28-3.18,2.33-5.36,1.05
			c-0.12-0.07-0.32-0.08-0.46-0.04c-1.43,0.36-2.71,0.14-3.82-0.9c-0.08-0.08-0.22-0.14-0.33-0.14c-1.72-0.03-3.05-0.65-3.64-2.44
			c-1.05,0.66-2.15,0.98-3.3,0.5c-0.64-0.27-1.22-0.32-1.9-0.23c-0.98,0.13-1.89-0.17-2.64-0.85c-0.12-0.11-0.31-0.18-0.47-0.19
			c-1.29-0.09-2.44-0.49-3.02-1.75c-0.61-1.32-0.31-2.57,0.54-3.71c0.12-0.16,0.24-0.33,0.39-0.44c1.59-1.15,1.96-2.88,2.15-4.66
			c0.12-1.09,0.1-2.2,0.11-3.3c0.01-0.57,0-1.15-0.46-1.61c-0.08-0.08-0.14-0.22-0.17-0.34c-0.1-0.43-0.24-0.82-0.68-1.02
			c-0.05-0.02-0.09-0.07-0.11-0.12c-0.32-0.82-0.7-1.63-0.92-2.48c-0.18-0.73,0.28-1.34,0.64-1.95c0.3-0.51,0.53-1.05,0.79-1.58
			c0.15-0.31,0-0.48-0.25-0.67c-1.99-1.44-3.74-3.11-5.18-5.1c-2.26-3.12-3.15-6.62-2.99-10.44c0.1-2.39,0.47-4.69,1.55-6.85
			c0.21-0.42,0.41-0.85,0.66-1.24c0.2-0.31,0.19-0.54-0.01-0.86c-1.72-2.94-2.16-6.09-1.28-9.38c0.42-1.56,1.33-2.78,3.03-3.13
			c1.2-0.25,2.39-0.04,3.48,0.47c1.11,0.53,2.16,1.19,3.14,1.75c-0.15-0.85-0.39-1.85-0.49-2.86c-0.08-0.76-0.05-1.55,0.05-2.31
			c0.2-1.43,1.08-2.39,2.34-3.04c1.37-0.7,2.85-1,4.35-1.24c3.2-0.5,6.39-0.52,9.56,0.26c1.3,0.32,2.51,0.83,3.43,1.84
			c1.2,1.33,1.34,2.95,1.14,4.63c-0.09,0.78-0.3,1.55-0.48,2.42c0.19-0.13,0.34-0.23,0.49-0.34c1.39-0.98,2.89-1.59,4.62-1.62
			c1.76-0.03,2.96,0.78,3.67,2.35c0.86,1.89,0.9,3.88,0.59,5.89c-0.27,1.75-0.84,3.39-1.87,4.85c-0.1,0.15-0.05,0.48,0.04,0.68
			c0.88,1.98,1.58,4.02,2.06,6.14c0.76,3.4,0.69,6.72-0.81,9.94c-0.96,2.08-2.41,3.75-4.2,5.14c-0.33,0.25-0.34,0.44-0.19,0.79
			C82.71,71.91,84.33,74.09,86.42,76.01z M58.73,38.39c-0.1,0.37-0.1,0.71-0.25,0.83c-0.34,0.26-0.51-0.12-0.72-0.33
			c-0.86-0.84-1.68-1.74-2.63-2.47c-1.04-0.81-2.27-1.24-3.62-1.24c-0.77,0-1.4,0.29-1.77,0.94c-0.29,0.51-0.53,1.07-0.66,1.64
			c-0.33,1.43-0.29,2.87,0.03,4.29c0.46,2,1.11,3.9,3.09,4.98c0.1,0.05,0.17,0.41,0.1,0.48c-0.12,0.13-0.39,0.23-0.53,0.18
			c-0.34-0.13-0.65-0.35-1.04-0.58c-0.41,0.81-0.85,1.57-1.21,2.37c-1.07,2.35-1.19,4.84-1.11,7.37c0.08,2.31,0.61,4.52,1.87,6.47
			c2.34,3.62,5.29,6.55,9.52,7.94c0.14,0.05,0.34,0.31,0.3,0.39c-0.07,0.16-0.25,0.31-0.42,0.36c-0.15,0.05-0.36-0.03-0.52-0.09
			c-0.67-0.25-1.34-0.51-2-0.76c-0.57,1.09-1.14,2.19-1.72,3.29c0.2-0.05,0.33-0.15,0.43-0.27c0.21-0.27,0.45-0.55,0.8-0.3
			c0.4,0.3,0.02,0.56-0.12,0.83c-0.24,0.47-0.48,0.93-0.72,1.4c0.06,0.03,0.12,0.07,0.19,0.1c0.17-0.26,0.32-0.55,0.53-0.77
			c0.13-0.14,0.37-0.17,0.56-0.25c0.06,0.2,0.21,0.4,0.18,0.58c-0.09,0.55-0.28,1.08-0.34,1.63c-0.03,0.24,0.15,0.51,0.23,0.76
			c0.08-0.02,0.15-0.03,0.23-0.05c0.03-0.31,0.09-0.63,0.09-0.94c0-0.31-0.1-0.66,0.33-0.72c0.44-0.06,0.45,0.33,0.53,0.61
			c0.27,0.9,0.49,1.81,0.79,2.7c0.6,1.76,1.14,3.54,2.38,4.99c1.67,1.95,3.72,3.4,6.02,4.51c0.09,0.04,0.19,0.05,0.43,0.12
			c0.23-1.09,0.52-2.13,0.66-3.19c0.33-2.52,0.19-5.04-0.18-7.55c-0.05-0.32-0.02-0.6,0.35-0.67c0.35-0.07,0.43,0.2,0.46,0.46
			c0.4,3.02,0.57,6.04,0.01,9.05c-0.34,1.81-0.99,3.46-2.51,4.65c-0.56,0.43-0.91,1.02-1.01,1.74c-0.18,1.25,1.07,2.27,2.25,1.84
			c-0.05-1.41,0.06-1.9,0.57-2.57c0.19-0.25,0.4-0.54,0.75-0.29c0.35,0.25,0.14,0.52-0.07,0.78c-0.65,0.84-0.64,1.85,0.01,2.7
			c0.54,0.7,1.83,0.89,2.54,0.36c-0.04-0.13-0.08-0.27-0.11-0.41c-0.17-0.89-0.11-1.74,0.51-2.45c0.13-0.14,0.47-0.26,0.62-0.18
			c0.3,0.15,0.21,0.43,0.04,0.69c-0.54,0.78-0.57,1.77-0.07,2.37c0.54,0.65,1.6,0.96,2.41,0.58c0.54-0.26,1.07-0.62,1.48-1.05
			c1.5-1.58,1.96-3.51,1.54-5.61c-0.53-2.7-1.1-5.4-1.74-8.08c-0.38-1.59-0.92-3.15-1.36-4.72c-0.05-0.18,0.03-0.54,0.16-0.61
			c0.32-0.17,0.54,0.04,0.62,0.38c0.02,0.07,0.05,0.14,0.07,0.2c0.41,1.4,0.83,2.8,1.23,4.2c0.3,1.07,0.58,2.15,0.9,3.34
			c0.08-0.33,0.12-0.54,0.18-0.74c0.35-1.38,0.98-2.59,2.12-3.49c1.5-1.18,4.01-0.99,5.16,0.42c0.12,0.14,0.06,0.43,0.09,0.65
			c-0.22-0.02-0.52,0.03-0.65-0.09c-1.47-1.35-3.46-1.24-4.72,0.3c-1.27,1.56-1.59,3.4-1.4,5.35c0.12,1.15,0.8,1.94,1.86,2.31
			c0.6,0.21,1.27,0.22,1.9,0.37c0.18,0.04,0.33,0.23,0.49,0.36c-0.15,0.14-0.29,0.31-0.46,0.42c-0.09,0.06-0.24,0.02-0.37,0.02
			c-1.2-0.04-2.28-0.43-3.25-1.25c0,1.42,0,2.76,0,3.85c0.16-0.23,0.42-0.7,0.77-1.07c0.21-0.22,0.6-0.38,0.84,0
			c0.24,0.38-0.07,0.53-0.36,0.68c-0.38,0.2-0.42,0.56-0.37,0.93c0.05,0.4,0.35,0.59,0.68,0.54c0.54-0.08,1.13-0.16,1.58-0.43
			c0.89-0.54,1.74-1.16,2.55-1.83c1.26-1.03,2.08-2.38,2.55-3.94c0.58-1.92,0.43-3.85,0.2-5.79c-0.31-2.63-1.3-4.92-3.25-6.77
			c-1.96-1.87-3.33-4.15-4.35-6.65c-0.06-0.16-0.15-0.31-0.2-0.43c-0.91,0.44-1.76,0.89-2.63,1.26c-0.89,0.38-1.81,0.7-2.74,1
			c-0.17,0.05-0.52-0.07-0.6-0.21c-0.17-0.31,0.1-0.48,0.37-0.57c0.07-0.02,0.14-0.03,0.21-0.05c2.38-0.78,4.64-1.79,6.62-3.35
			c2.81-2.22,4.42-5.08,4.65-8.68c0.18-2.73-0.37-5.35-1.28-7.9c-0.39-1.09-0.86-2.16-1.3-3.25c-0.28,0.16-0.46,0.32-0.66,0.35
			c-0.21,0.03-0.52,0.01-0.64-0.13c-0.22-0.24-0.03-0.45,0.23-0.59c0.94-0.48,1.56-1.26,2.03-2.18c0.68-1.32,1.02-2.73,1.14-4.2
			c0.11-1.32,0.01-2.64-0.52-3.88c-0.5-1.17-1.29-1.63-2.52-1.5c-1.73,0.18-3.15,1-4.39,2.15c-0.57,0.52-1.02,1.16-1.57,1.71
			c-0.14,0.14-0.46,0.23-0.63,0.16c-0.32-0.13-0.2-0.4-0.04-0.63c0.15-0.21,0.3-0.42,0.46-0.63C71.34,34.78,63.65,35.05,58.73,38.39
			z M87.83,80.15c0.6-0.33,1.23-0.64,1.82-1.01c3.08-1.95,4.95-4.63,4.9-8.41c-0.02-1.64-0.13-3.28-0.16-4.92
			c-0.02-1.31-0.1-2.64,0.07-3.93c0.29-2.13,1.41-3.63,3.66-4.06c0.3-0.06,0.59-0.17,0.87-0.3c1.18-0.52,1.86-1.62,1.78-2.89
			c-0.1-1.69-0.81-2.78-2.1-3.21c-2.17-0.73-4.5,0.3-5.66,2.49c-1.34,2.53-1.58,5.23-1.34,8.04c0.2,2.39,0.36,4.78,0.47,7.17
			c0.13,2.74-0.98,4.98-2.99,6.79c-0.76,0.68-1.6,1.28-2.39,1.91C87.1,78.56,87.45,79.33,87.83,80.15z M75.02,36.4
			c0.52-0.81,1.08-2.8,1.11-3.92c0.07-2.3-0.69-3.38-2.88-4.1c-0.1-0.03-0.2-0.07-0.31-0.1c-2.87-0.76-5.77-0.86-8.68-0.37
			c-1.36,0.23-2.71,0.6-4.02,1.04c-1.31,0.44-1.92,1.46-1.87,2.85c0.02,0.5,0.02,1.02,0.12,1.51c0.25,1.22,0.56,2.44,0.85,3.69
			C64.58,34.55,69.76,34.08,75.02,36.4z M59.58,93.49c-0.26-0.87-0.12-1.66,0.46-2.35c0.24-0.28,0.5-0.69,0.92-0.34
			c0.43,0.36-0.03,0.58-0.24,0.82c-0.74,0.87-0.54,1.8,0.5,2.29c0.81,0.38,1.53,0.17,2.17-0.34c1.22-0.95,1.91-2.23,2.11-3.76
			c0.06-0.46-0.1-0.74-0.51-0.99c-3.1-1.93-5.45-4.46-6.4-8.1c-0.17-0.65-0.42-1.29-0.64-1.93c-0.06,0-0.12-0.01-0.18-0.01
			c-0.04,0.23-0.12,0.45-0.13,0.68c-0.05,1.69,0.01,3.39-0.16,5.07c-0.19,1.9-0.82,3.64-2.41,4.91c-0.33,0.26-0.57,0.7-0.74,1.1
			c-0.23,0.54-0.17,1.15,0.24,1.57c0.42,0.42,0.99,0.61,1.62,0.47c0-1.14,0.17-1.68,0.66-2.25c0.21-0.24,0.44-0.43,0.73-0.16
			c0.27,0.24,0.12,0.46-0.08,0.7c-0.62,0.74-0.67,1.48-0.18,2.18C57.76,93.64,58.65,93.84,59.58,93.49z"/>
		<path class="st0" d="M53.38,53.53c0-2.07,0.34-3.88,1.42-5.48c1.61-2.39,4.6-2.29,6.06,0.2c0.93,1.59,1.1,3.37,1.19,5.16
			c0.01,0.11-0.02,0.22,0,0.32c0.22,1.14-0.41,1.71-1.36,2.11c-2.36,0.99-4.61,0.78-6.77-0.54c-0.22-0.14-0.4-0.46-0.46-0.72
			C53.37,54.19,53.4,53.77,53.38,53.53z M55.97,55.41c0.03-0.04,0.06-0.07,0.08-0.11c-1.05-1.27-1.46-2.71-1.15-4.34
			c0.34-1.78,1.53-3.08,3.1-3.35c0.3-0.05,0.62-0.05,1.05-0.08c-0.86-0.45-1.65-0.57-2.36-0.1c-0.52,0.35-1.02,0.82-1.35,1.35
			c-1.07,1.7-1.28,3.61-1.08,5.57c0.01,0.12,0.11,0.28,0.21,0.34C54.97,54.94,55.47,55.17,55.97,55.41z M58.81,50.08
			c0.01-0.7-0.51-1.24-1.21-1.24c-0.68,0-1.25,0.54-1.26,1.21c-0.01,0.65,0.57,1.25,1.23,1.26C58.24,51.32,58.8,50.77,58.81,50.08z"
			/>
		<path class="st0" d="M67.63,61.26c0,0.49-0.06,0.97,0.02,1.42c0.06,0.33,0.24,0.68,0.48,0.92c1.37,1.42,3.86,0.85,4.51-1.02
			c0.09-0.26,0.14-0.57,0.51-0.47c0.41,0.11,0.38,0.45,0.27,0.75c-0.43,1.14-1.28,1.83-2.4,2.26c-0.28,0.11-0.54,0.33-0.76,0.54
			c-0.57,0.55-1.06,1.19-1.67,1.68c-0.96,0.77-2.03,0.84-3.13,0.23c-0.9-0.5-1.64-1.17-2.15-2.08c-0.09-0.17-0.28-0.31-0.46-0.39
			c-1.09-0.49-1.6-1.36-1.68-2.51c-0.01-0.15,0.2-0.31,0.3-0.47c0.16,0.12,0.37,0.22,0.48,0.38c0.1,0.16,0.07,0.39,0.12,0.58
			c0.22,0.83,0.93,1.39,1.79,1.35c0.37-0.01,0.76-0.08,1.11-0.2c1.57-0.51,2.01-1.25,1.79-2.89c-0.72-0.2-1.45-0.34-2.12-0.62
			c-0.55-0.23-1.09-0.57-1.54-0.97c-1.04-0.92-0.86-3.13,1.01-3.49c2.24-0.43,4.48-0.46,6.71,0.05c0.67,0.15,1.12,0.6,1.3,1.25
			c0.19,0.68,0.02,1.29-0.52,1.76c-0.99,0.86-2.2,1.28-3.4,1.73C68,61.14,67.82,61.2,67.63,61.26z M64.24,65.33
			c1.48,2.34,3.56,2.33,5.06,0.12c-0.72-0.45-1.45-0.9-2.23-1.38C66.41,64.83,65.42,65.24,64.24,65.33z M65.3,58.51
			c0.42-0.12,0.86-0.19,1.23-0.37c0.42-0.2,0.4-0.58,0.01-0.84c-0.54-0.36-1.9-0.36-2.45,0c-0.4,0.26-0.42,0.63,0.01,0.84
			C64.46,58.32,64.88,58.39,65.3,58.51z"/>
		<path class="st0" d="M77.23,51.63c1.66,0.03,2.84,0.75,3.77,1.92c0.33,0.42,0.29,0.87-0.06,1.16c-0.35,0.3-0.85,0.29-1.15-0.1
			c-1.57-1.99-3.42-1.64-5.17-0.06c-0.29,0.26-0.55,0.47-0.96,0.32c-0.58-0.21-0.76-0.91-0.31-1.36
			C74.46,52.4,75.75,51.68,77.23,51.63z"/>
		<path class="st0" d="M55.02,42.36c-0.13,0.55-0.3,1.32-0.49,2.08c-0.07,0.28-0.27,0.55-0.57,0.36c-0.15-0.09-0.25-0.47-0.19-0.66
			c0.84-2.66,0.13-4.93-1.69-6.92c-0.72-0.79-1.33-0.68-1.79,0.28c-0.14,0.28-0.31,0.52-0.59,0.33c-0.14-0.1-0.22-0.48-0.16-0.67
			c0.45-1.3,1.74-1.68,2.81-0.82c1.37,1.1,2.05,2.61,2.43,4.28C54.9,41.11,54.92,41.62,55.02,42.36z"/>
		<path class="st0" d="M79.02,42.48c0.07-2.36,0.75-4.09,2.01-5.58c0.25-0.3,0.57-0.56,0.91-0.75c1.01-0.59,2.42,0.09,2.58,1.26
			c0.02,0.14-0.09,0.39-0.2,0.43c-0.15,0.05-0.35-0.05-0.52-0.1c-0.04-0.01-0.05-0.09-0.08-0.14c-0.59-1.08-1.16-1.18-1.96-0.23
			c-1.68,1.98-2.39,4.2-1.55,6.77c0.1,0.29,0.16,0.59-0.22,0.72c-0.35,0.12-0.5-0.16-0.56-0.43C79.26,43.64,79.11,42.87,79.02,42.48
			z"/>
		<path class="st0" d="M67.36,69.99c-2.12,0.02-3.34-0.78-4.27-2.08c-0.17-0.23-0.32-0.49,0-0.7c0.28-0.18,0.5-0.04,0.68,0.21
			c0.65,0.92,1.46,1.6,2.62,1.72c1.54,0.15,2.78-0.39,3.74-1.6c0.11-0.14,0.24-0.29,0.39-0.34c0.12-0.03,0.38,0.07,0.4,0.16
			c0.04,0.18,0.03,0.43-0.07,0.58C69.9,69.29,68.56,69.95,67.36,69.99z"/>
		<path class="st0" d="M69.95,30.23c0,0.72,0,1.36,0,2.06c-0.47,0-0.91,0-1.44,0c0,0.52,0,1,0,1.49c-0.82,0-1.55,0-2.33,0
			c0-0.48,0-0.94,0-1.46c-0.51,0-0.97,0-1.47,0c0-0.71,0-1.37,0-2.07c0.46,0,0.92,0,1.45,0c0-0.52,0-1,0-1.49c0.8,0,1.53,0,2.32,0
			c0,0.48,0,0.94,0,1.48C69.01,30.23,69.49,30.23,69.95,30.23z"/>
	</g>
	<path class="st0" d="M24.25,90.39V32.13H1.67V18.4c3.16,0.09,6.22-0.15,9.18-0.71c2.95-0.56,5.6-1.54,7.96-2.95
		c2.35-1.41,4.34-3.27,5.97-5.58c1.62-2.31,2.69-5.17,3.21-8.6h14.5v89.83H24.25z"/>
</g>
</svg>
