<?xml version="1.0" encoding="utf-8"?>
<!-- Generator: Adobe Illustrator 24.1.0, SVG Export Plug-In . SVG Version: 6.00 Build 0)  -->
<svg version="1.1" id="Layer_1" xmlns="http://www.w3.org/2000/svg" xmlns:xlink="http://www.w3.org/1999/xlink" x="0px" y="0px"
	 viewBox="0 0 104.06 94.86" style="enable-background:new 0 0 104.06 94.86;" xml:space="preserve">
<style type="text/css">
	.st0{fill:#EA538B;}
</style>
<g>
	<g>
		<path class="st0" d="M39.13,57.09c-0.86,0.01-1.66,0.28-2.44,0.6c-0.35,0.14-0.68,0.33-1.1,0.22c-0.25-0.06-0.49,0.07-0.72,0.19
			c-0.41,0.23-0.82,0.46-1.3,0.73c0.08-0.38,0.22-0.65,0.37-0.92c0.65-1.21,1.29-2.43,1.86-3.69c1.49-3.29,2.83-6.63,3.48-10.2
			c0.2-1.08,0.33-2.18-0.04-3.26c-0.39-1.13-1.45-1.57-2.55-1.1c-0.46,0.2-0.84,0.49-1.22,0.8c-0.53,0.44-0.97,0.96-1.5,1.51
			c0.12-0.43,0.22-0.79,0.31-1.14c0.36-1.4,0.7-2.79,0.67-4.25c-0.03-1.78-1.34-2.68-3-2.03c-0.8,0.31-1.45,0.87-2.07,1.44
			c-1.07,0.99-1.99,2.12-2.93,3.25c-0.03-0.18,0.07-0.3,0.12-0.44c0.44-1.18,0.87-2.37,0.84-3.66c-0.03-1.13-0.66-1.83-1.77-1.97
			c-1.29-0.17-2.26,0.43-3.14,1.26c-0.77,0.72-1.4,1.57-2.14,2.46c0.01-0.22,0.02-0.34,0.03-0.46c0.04-1.08-0.69-1.9-1.78-2.01
			c-0.8-0.08-1.53,0.14-2.22,0.52c-1,0.55-1.86,1.28-2.62,2.12c-2.61,2.91-4.58,6.23-6.06,9.84c-1.26,3.05-2.05,6.25-2.71,9.47
			c-0.87,4.25-1.5,8.53-2.02,12.83c-0.32,2.65-0.56,5.32-0.77,7.98c-0.21,2.52-0.34,5.03-0.36,7.56c-0.01,1.19,0.35,2.14,1.18,2.99
			c1.01,1.03,2.14,1.88,3.42,2.52c2.88,1.44,5.98,1.96,9.16,2.13c2.9,0.15,5.79-0.07,8.66-0.45c2.46-0.32,4.9-0.75,7.31-1.32
			c1.16-0.27,1.97-0.95,2.23-2.16c0.14-0.66-0.06-1.28-0.23-1.92c-1.15-4.16-1.47-8.44-1.66-12.73c-0.02-0.4,0.08-0.75,0.28-1.1
			c0.71-1.26,1.62-2.38,2.53-3.5c0.28-0.34,0.51-0.73,1.06-0.64c0.1,0.02,0.23-0.06,0.33-0.12c0.6-0.35,1.21-0.7,1.8-1.06
			c0.6-0.36,0.9-0.92,1.02-1.6c0.08-0.46,0.09-0.92,0-1.37c-0.04-0.25,0.01-0.45,0.17-0.66c0.52-0.67,0.98-1.38,1.37-2.13
			c0.31-0.6,0.56-1.21,0.63-1.89C41.74,58.18,40.73,57.08,39.13,57.09z M34.71,67.28c-0.92,1.11-1.79,2.25-2.68,3.39
			c-1.06,1.36-1.39,2.83-1.24,4.54c0.27,3.21,0.52,6.42,1.14,9.59c0.17,0.86,0.39,1.7,0.66,2.54c0.33,1,0.05,1.48-0.98,1.72
			c-4.73,1.1-9.51,1.81-14.37,1.75c-3.21-0.04-6.36-0.48-9.31-1.87c-1.37-0.65-2.57-1.54-3.55-2.71c-0.23-0.27-0.36-0.56-0.35-0.93
			c0.02-1.01,0.01-2.02,0.01-3.03c0.12-2.86,0.37-5.72,0.63-8.57c0.29-3.12,0.66-6.23,1.12-9.33c0.51-3.39,1.07-6.77,1.89-10.1
			c0.71-2.88,1.48-5.75,2.8-8.42c1.47-2.96,3.14-5.79,5.51-8.15c0.46-0.46,0.96-0.88,1.54-1.2c0.29-0.16,0.58-0.29,0.9-0.37
			c0.73-0.18,0.93,0,0.72,0.71c-0.7,2.34-1.62,4.61-2.52,6.88c-0.29,0.73-0.58,1.46-0.87,2.19c-0.1,0.25-0.2,0.5,0.1,0.66
			c0.31,0.15,0.51-0.01,0.68-0.29c1.86-3.08,3.82-6.08,6.06-8.89c0.57-0.71,1.17-1.39,1.85-1.99c0.36-0.32,0.76-0.56,1.26-0.59
			c0.39-0.02,0.58,0.14,0.58,0.54c-0.01,0.54-0.15,1.05-0.32,1.56c-0.69,2.13-1.63,4.16-2.38,6.27c-0.43,1.22-0.83,2.44-1.15,3.69
			c-0.07,0.28-0.13,0.54,0.19,0.68c0.32,0.14,0.48-0.09,0.64-0.33c1.79-2.7,3.63-5.35,5.7-7.85c0.85-1.03,1.78-1.99,2.84-2.82
			c0.26-0.2,0.53-0.38,0.84-0.49c0.41-0.15,0.54-0.07,0.61,0.35c0.14,0.9-0.05,1.78-0.25,2.64c-0.77,3.25-1.96,6.36-3.2,9.46
			c-0.18,0.45-0.37,0.9-0.56,1.36c-0.11,0.26-0.12,0.5,0.15,0.66c0.3,0.17,0.47-0.03,0.61-0.26c1.4-2.21,2.86-4.37,4.53-6.39
			c0.64-0.78,1.28-1.57,2.06-2.21c0.27-0.23,0.59-0.63,0.93-0.46c0.35,0.18,0.28,0.68,0.27,1.07c-0.06,1.28-0.34,2.52-0.69,3.75
			c-1.06,3.79-2.64,7.36-4.49,10.81c-0.61,1.15-1.07,2.35-1.08,3.68c0,0.78,0.36,1.11,1.12,1.06c0.21-0.01,0.26,0.04,0.27,0.23
			c0.12,1.87,0.83,3.53,1.85,5.08C34.95,67.09,34.8,67.17,34.71,67.28z M36.76,66.48c-0.01,0.01-0.03,0.01-0.04,0.02
			c-0.74,0.5-0.84,0.51-1.34-0.26c-0.93-1.45-1.63-3.01-1.58-4.77c0.03-1,0.11-1,0.91-1.32c0.09,2.22,0.91,4.19,2.08,6.04
			C36.88,66.31,36.94,66.4,36.76,66.48z M37.82,65.51c-0.01,0.12-0.02,0.28-0.13,0.31c-0.11,0.03-0.19-0.1-0.27-0.19
			c-0.11-0.12-0.11-0.22,0-0.34c0.12-0.12,0.22-0.27,0.35-0.43C37.9,65.11,37.83,65.31,37.82,65.51z M39.88,59.97
			c-0.12,0.43-0.31,0.83-0.54,1.21c-0.71,1.22-1.57,2.33-2.48,3.48c-0.61-1.32-1.12-2.6-1.26-3.99c-0.04-0.42,0.02-0.69,0.45-0.88
			c0.66-0.29,1.31-0.62,1.99-0.87c0.24-0.09,0.48-0.16,0.72-0.21C39.74,58.55,40.15,59.02,39.88,59.97z"/>
		<path class="st0" d="M30.31,87.18c-0.3,0.09-0.59,0.18-0.9,0.26c-4.68,1.1-9.43,1.51-14.22,1.42c-2.33-0.04-4.61-0.43-6.7-1.54
			c-1.37-0.72-2.59-1.62-3.38-3c-0.14-0.24-0.26-0.45-0.58-0.28c-0.29,0.16-0.31,0.4-0.16,0.68c0.2,0.39,0.45,0.73,0.74,1.05
			c1.5,1.69,3.42,2.66,5.56,3.26c2.24,0.62,4.53,0.72,7.16,0.64c3.13-0.07,6.56-0.37,9.95-1.02c0.93-0.18,1.86-0.37,2.77-0.66
			c0.33-0.11,0.61-0.24,0.48-0.64C30.88,86.96,30.58,87.1,30.31,87.18z"/>
		<path class="st0" d="M14.99,58.4c-0.17,0.2-0.16,0.44,0.05,0.59c0.38,0.27,0.42,0.66,0.49,1.07c0.14,0.84,0.54,1.56,1.18,2.14
			c0.5,0.45,1.08,0.72,1.87,0.72c0.14,0.01,0.38-0.04,0.6-0.11c1.1-0.33,2.41-1.96,2.5-3.08c0.03-0.32-0.14-0.47-0.44-0.48
			c-0.13,0-0.26,0.03-0.4,0.04c-1.85,0.18-3.72,0.41-5.29-0.95C15.37,58.18,15.15,58.21,14.99,58.4z M20.59,60.17
			c-0.25,1.05-1.38,2.01-2.23,1.91c-1.01-0.12-2.01-1.24-1.99-2.24C17.74,60.35,19.16,60.28,20.59,60.17z"/>
		<path class="st0" d="M23.37,58.02c0.3,0.17,0.46-0.03,0.59-0.27c0.31-0.55,0.73-1.01,1.32-1.27c0.95-0.43,1.87-0.06,2.26,0.9
			c0.17,0.42,0.23,0.86,0.2,1.31c-0.01,0.27,0.11,0.44,0.38,0.45c0.28,0.01,0.46-0.14,0.45-0.43c0-0.31-0.01-0.63-0.06-0.93
			c-0.23-1.41-1.19-2.3-2.71-2.29c-1.06,0.06-1.95,0.77-2.59,1.86C23.06,57.61,23.08,57.86,23.37,58.02z"/>
		<path class="st0" d="M10.34,55.56c0.3,0.17,0.48,0.01,0.63-0.27c0.31-0.56,0.74-1,1.33-1.27c0.93-0.41,1.84-0.05,2.23,0.89
			c0.18,0.43,0.23,0.89,0.22,1.35c0,0.25,0.12,0.4,0.36,0.42c0.25,0.01,0.43-0.12,0.47-0.38c0.02-0.1,0-0.21,0-0.31
			c0.01,0,0.01,0,0.02,0c-0.03-0.25-0.05-0.5-0.1-0.75c-0.27-1.38-1.19-2.22-2.45-2.2c-1.3,0.02-2.17,0.75-2.81,1.81
			C10.09,55.12,10.04,55.39,10.34,55.56z"/>
	</g>
	<path class="st0" d="M41.73,23.66c1.32-4.25,3.3-7.97,5.95-11.15c2.64-3.18,5.97-5.66,9.98-7.44c4.01-1.78,8.61-2.67,13.82-2.67
		c3.97,0,7.75,0.62,11.34,1.86c3.59,1.24,6.75,3.02,9.48,5.33c2.73,2.31,4.9,5.16,6.51,8.55c1.61,3.39,2.42,7.19,2.42,11.4
		c0,4.38-0.7,8.14-2.11,11.28c-1.41,3.14-3.26,5.93-5.58,8.37c-2.31,2.44-4.94,4.65-7.87,6.63c-2.93,1.98-5.89,3.95-8.86,5.89
		c-2.97,1.94-5.87,4.03-8.68,6.26c-2.81,2.23-5.29,4.83-7.44,7.81h41.02v15.12h-63.7c0-5.04,0.72-9.42,2.17-13.14
		c1.44-3.72,3.41-7.04,5.89-9.98c2.48-2.93,5.39-5.64,8.74-8.12c3.35-2.48,6.88-5,10.6-7.56c1.9-1.32,3.92-2.66,6.07-4.03
		c2.15-1.36,4.11-2.87,5.89-4.52c1.78-1.65,3.26-3.51,4.46-5.58c1.2-2.06,1.8-4.42,1.8-7.06c0-4.21-1.22-7.5-3.66-9.85
		c-2.44-2.35-5.56-3.53-9.36-3.53c-2.56,0-4.73,0.6-6.51,1.8c-1.78,1.2-3.2,2.77-4.28,4.71c-1.07,1.94-1.84,4.09-2.29,6.44
		c-0.46,2.35-0.68,4.69-0.68,7H40C39.83,32.52,40.41,27.92,41.73,23.66z"/>
</g>
</svg>
