<?xml version="1.0" encoding="utf-8"?>
<!-- Generator: Adobe Illustrator 24.1.0, SVG Export Plug-In . SVG Version: 6.00 Build 0)  -->
<svg version="1.1" id="Layer_1" xmlns="http://www.w3.org/2000/svg" xmlns:xlink="http://www.w3.org/1999/xlink" x="0px" y="0px"
	 viewBox="0 0 104.06 93.46" style="enable-background:new 0 0 104.06 93.46;" xml:space="preserve">
<style type="text/css">
	.st0{fill:#FFD207;}
</style>
<g>
	<path class="st0" d="M31.97,38.75c2.08-0.16,4.02-0.62,5.82-1.38c1.8-0.76,3.28-1.86,4.44-3.3c1.16-1.44,1.74-3.36,1.74-5.76
		c0-3.6-1.2-6.36-3.6-8.28c-2.4-1.92-5.16-2.88-8.28-2.88c-4.32,0-7.58,1.42-9.78,4.26c-2.2,2.84-3.26,6.42-3.18,10.74H2.93
		c0.16-4.32,0.94-8.26,2.34-11.82c1.4-3.56,3.36-6.62,5.88-9.18c2.52-2.56,5.54-4.54,9.06-5.94c3.52-1.4,7.44-2.1,11.76-2.1
		c3.36,0,6.72,0.5,10.08,1.5c3.36,1,6.38,2.5,9.06,4.5c2.68,2,4.86,4.44,6.54,7.32s2.52,6.2,2.52,9.96c0,4.08-0.98,7.68-2.94,10.8
		c-1.96,3.12-4.9,5.24-8.82,6.36v0.24c4.64,1.04,8.28,3.28,10.92,6.72c2.64,3.44,3.96,7.56,3.96,12.36c0,4.4-0.86,8.32-2.58,11.76
		c-1.72,3.44-4.02,6.32-6.9,8.64c-2.88,2.32-6.2,4.08-9.96,5.28c-3.76,1.2-7.68,1.8-11.76,1.8c-4.72,0-9.02-0.68-12.9-2.04
		c-3.88-1.36-7.18-3.34-9.9-5.94c-2.72-2.6-4.82-5.78-6.3-9.54c-1.48-3.76-2.18-8.08-2.1-12.96h16.2c0.08,2.24,0.44,4.38,1.08,6.42
		c0.64,2.04,1.56,3.8,2.76,5.28c1.2,1.48,2.7,2.66,4.5,3.54c1.8,0.88,3.94,1.32,6.42,1.32c3.84,0,7.08-1.18,9.72-3.54
		c2.64-2.36,3.96-5.58,3.96-9.66c0-3.2-0.62-5.64-1.86-7.32c-1.24-1.68-2.82-2.9-4.74-3.66c-1.92-0.76-4.02-1.2-6.3-1.32
		c-2.28-0.12-4.46-0.18-6.54-0.18v-12C27.93,38.91,29.89,38.91,31.97,38.75z"/>
	<g>
		<path class="st0" d="M77.09,24.08c0.11-0.09,0.17-0.15,0.24-0.2c0.46-0.37,0.96-0.3,1.31,0.18c1.81,2.46,3.98,4.54,6.58,6.15
			c0.97,0.6,2.03,1.07,3.05,1.6c2.28,1.18,4.13,2.85,5.63,4.91c1.99,2.74,3.1,5.76,3.02,9.19c-0.07,3.01,0.7,5.85,1.93,8.58
			c0.36,0.8,0.8,1.58,1.24,2.34c0.37,0.65,0.24,1.14-0.44,1.43c-0.04,0.02-0.09,0.04-0.16,0.08c0.49,0.76,1.09,1.4,1.82,1.9
			c1.79,1.22,2.32,2.9,1.46,4.9c-1.12,2.61-3.21,3.83-5.97,4.01c-1.97,0.13-3.81-0.41-5.58-1.19c-2.42-1.07-4.74-2.33-6.92-3.82
			c-0.2-0.14-0.38-0.18-0.59-0.07c-0.99,0.54-1.83,0.27-2.73-0.34c-1.94-1.3-3.96-2.47-5.94-3.72c-2.66-1.67-4.87-3.81-6.56-6.46
			c-1.4-2.2-2.29-4.57-2.63-7.16c-0.36-2.73-0.76-5.45-1.18-8.17c-0.1-0.66,0.01-1.18,0.52-1.59c0.49-0.39,0.59-0.83,0.48-1.47
			c-0.51-3.02-0.79-6.07-0.51-9.13c0.19-2.1,0.88-4.03,2.39-5.57c1.74-1.77,3.83-2.4,6.23-1.66c1.33,0.41,2.15,1.34,2.36,2.75
			C76.27,22.45,76.58,23.28,77.09,24.08z M77.83,25.79c-0.1,0.1-0.18,0.16-0.25,0.24c-3.67,3.86-7.33,7.72-11.01,11.57
			c-0.2,0.21-0.24,0.4-0.2,0.67c0.3,1.97,0.57,3.95,0.87,5.92c0.2,1.32,0.34,2.66,0.67,3.95c0.97,3.79,3.19,6.78,6.22,9.18
			c2.56,2.02,5.47,3.54,8.24,5.25c0.11,0.07,0.32,0.05,0.45,0c4.36-1.57,8.71-3.15,13.06-4.73c0.77-0.28,1.53-0.56,2.28-0.84
			c0-0.06,0-0.09-0.01-0.11c-0.18-0.35-0.36-0.7-0.53-1.05c-1.43-2.9-2.29-5.96-2.4-9.2c-0.03-1.01,0.03-2.04-0.17-3.02
			c-0.98-4.89-3.73-8.45-8.24-10.61c-1.65-0.79-3.19-1.74-4.63-2.87C80.58,28.87,79.16,27.39,77.83,25.79z M86.96,62.86
			c0.15,0.1,0.23,0.16,0.31,0.21c1.39,0.75,2.77,1.52,4.17,2.23c1.2,0.61,2.46,1.07,3.8,1.27c1.14,0.17,2.28,0.15,3.33-0.37
			c1.1-0.54,1.85-1.39,2.04-2.64c0.08-0.5-0.1-0.87-0.54-1.15c-0.44-0.29-0.88-0.61-1.24-0.99c-0.65-0.68-1.24-1.43-1.89-2.19
			C93.69,60.41,90.37,61.62,86.96,62.86z M67.96,33.68c0.15-0.14,0.22-0.19,0.28-0.25c2.27-2.38,4.54-4.77,6.81-7.15
			c0.22-0.23,0.21-0.39,0.04-0.64c-0.7-1.08-1.23-2.24-1.39-3.53c-0.07-0.6-0.37-0.88-0.9-1c-1.36-0.32-2.49,0.12-3.45,1.08
			c-1.05,1.05-1.47,2.4-1.66,3.82c-0.24,1.76-0.14,3.53,0.01,5.29C67.76,32.07,67.86,32.83,67.96,33.68z M85.06,63.59
			c0.05,0.06,0.06,0.09,0.08,0.1c2.39,1.54,4.88,2.92,7.55,3.93c1.86,0.7,3.77,0.98,5.72,0.41c1.89-0.55,3.19-1.77,3.74-3.68
			c0.33-1.14,0.25-2.52-1.24-3.37c-0.36-0.2-0.68-0.48-0.97-0.78c-0.47-0.49-0.9-1.02-1.36-1.55c-0.21,0.08-0.45,0.16-0.72,0.26
			c0.74,1.16,1.62,2.11,2.73,2.82c0.68,0.43,0.93,1.03,0.88,1.8c-0.05,0.82-0.38,1.54-0.91,2.16c-1.19,1.43-2.78,1.89-4.57,1.82
			c-1.65-0.07-3.19-0.57-4.64-1.29c-1.7-0.85-3.36-1.8-5.02-2.73c-0.28-0.15-0.5-0.25-0.79-0.08C85.4,63.48,85.24,63.52,85.06,63.59
			z M66.5,35.23c0.16-0.15,0.25-0.25,0.35-0.34c0.31-0.24,0.39-0.53,0.31-0.93c-0.11-0.57-0.17-1.15-0.22-1.73
			c-0.19-2.15-0.39-4.31-0.07-6.46c0.26-1.77,0.88-3.39,2.3-4.56c1.22-1,2.61-1.36,4.14-0.82c0.7,0.25,1.11,0.75,1.23,1.5
			c0.09,0.53,0.2,1.07,0.39,1.57c0.25,0.65,0.6,1.26,0.92,1.93c0.2-0.2,0.3-0.33,0.43-0.43c0.18-0.14,0.17-0.28,0.06-0.46
			c-0.58-0.9-0.9-1.88-1.06-2.93c-0.13-0.86-0.65-1.43-1.41-1.81c-1.67-0.83-4.01-0.38-5.51,1.05c-1.38,1.32-2.02,2.99-2.31,4.83
			c-0.33,2.09-0.14,4.19,0.04,6.28C66.2,33,66.36,34.07,66.5,35.23z"/>
		<path class="st0" d="M86.38,41.32c0.38,0.58,0.74,1.14,1.11,1.69c0.73-0.17,0.85-0.12,1.29,0.55c1.02,1.57,2.04,3.14,3.07,4.7
			c1.42,2.17,2.85,4.33,4.27,6.5c0.36,0.55,0.31,0.73-0.22,1.11c-0.43,0.31-0.83,0.47-1.39,0.31c-0.67-0.19-1.28,0.09-1.85,0.47
			c-0.63,0.42-1.26,0.85-1.92,1.2c-1.65,0.87-3.8,0.35-4.86-1.2c-1.25-1.83-2.47-3.67-3.65-5.55c-1.18-1.88-0.62-4.18,1.24-5.42
			c0.7-0.47,1.42-0.93,2.13-1.39c0.51-0.33,0.59-1.02,0.19-1.49c-0.41-0.47-0.9-0.54-1.42-0.2c-0.79,0.52-1.57,1.08-2.39,1.53
			c-1.83,1.02-4.03,0.42-5.25-1.4c-1.16-1.74-2.3-3.48-3.42-5.24c-1.13-1.77-0.65-4.12,1.06-5.32c0.59-0.41,1.2-0.8,1.8-1.19
			c0.57-0.38,0.93-0.9,1.02-1.57c0.05-0.35,0.2-0.56,0.49-0.75c0.96-0.61,0.96-0.62,1.58,0.33c1.74,2.67,3.48,5.34,5.23,8.01
			c0.66,1.01,1.33,2,1.99,3.01C86.84,40.6,86.81,40.86,86.38,41.32z M82.87,48.93c-0.06,0.73,0.14,1.37,0.51,1.96
			c0.12,0.2,0.25,0.27,0.49,0.27c2.38-0.02,4.77-0.03,7.15-0.05c0.08,0,0.16-0.02,0.25-0.04c-0.02-0.06-0.02-0.1-0.04-0.13
			c-0.78-1.21-1.57-2.42-2.37-3.62c-0.06-0.1-0.25-0.16-0.38-0.16c-0.63,0.01-1.26,0.05-1.89,0.07c-0.35,0.02-0.71,0.04-1.15,0.06
			c0.67,0.47,1.27,0.89,1.93,1.36C85.82,48.76,84.35,48.84,82.87,48.93z M74.73,37.66c0.58,0.89,1.13,1.71,1.65,2.55
			c0.13,0.21,0.28,0.28,0.52,0.27c2.32-0.01,4.65-0.02,6.97-0.03c0.13,0,0.27-0.01,0.46-0.02c-0.6-0.92-1.16-1.79-1.74-2.64
			c-0.05-0.08-0.22-0.11-0.33-0.11c-1.21-0.01-2.43-0.01-3.64-0.02C77.36,37.66,76.09,37.66,74.73,37.66z M85.91,54.76
			c0.23,0.35,0.39,0.62,0.57,0.88c0.98,1.36,2.67,1.77,4.01,0.96c0.81-0.49,1.6-1.02,2.38-1.55c0.18-0.12,0.29-0.34,0.44-0.51
			c-0.02-0.03-0.05-0.06-0.07-0.09C90.82,54.55,88.41,54.66,85.91,54.76z M80.55,34.64c-0.66-1.01-1.26-1.96-1.9-2.89
			c-0.25-0.37-0.73-0.43-1.11-0.18c-0.81,0.52-1.63,1.02-2.41,1.58c-0.36,0.26-0.62,0.63-0.93,0.96c0.02,0.04,0.05,0.07,0.07,0.11
			C76.34,34.36,78.4,34.49,80.55,34.64z"/>
		<path class="st0" d="M75.14,49.87c-0.64-0.99-0.58-2.01-0.15-3.04c0.33-0.79,0.86-1.45,1.48-2.04c0.04-0.03,0.08-0.06,0.12-0.09
			c0.24-0.16,0.45-0.13,0.63,0.1c0.18,0.22,0.08,0.38-0.1,0.55c-0.65,0.62-1.19,1.31-1.47,2.17c-0.32,0.97-0.04,1.9,0.7,2.45
			c0.46,0.34,1,0.48,1.54,0.39c0.68-0.11,1.34-0.33,2.01-0.5c0.08-0.02,0.19-0.11,0.24-0.09c0.18,0.08,0.38,0.17,0.49,0.32
			c0.05,0.07-0.07,0.36-0.18,0.41c-1.13,0.58-2.31,0.88-3.58,0.62C76.13,50.96,75.56,50.52,75.14,49.87z"/>
	</g>
</g>
</svg>
