<?xml version="1.0" encoding="utf-8"?>
<!-- Generator: Adobe Illustrator 24.1.0, SVG Export Plug-In . SVG Version: 6.00 Build 0)  -->
<svg version="1.1" id="Layer_1" xmlns="http://www.w3.org/2000/svg" xmlns:xlink="http://www.w3.org/1999/xlink" x="0px" y="0px"
	 viewBox="0 0 519.63 141.58" style="enable-background:new 0 0 519.63 141.58;" xml:space="preserve">
<style type="text/css">
	.st0{fill:#784C99;}
	.st1{fill:#F5992C;}
	.st2{fill:url(#SVGID_1_);}
	.st3{fill:url(#SVGID_2_);}
	.st4{fill:url(#SVGID_3_);}
	.st5{fill:#A7C73B;}
</style>
<g>
	<path class="st0" d="M51.32,134.7c-18.35,4.21-32.35-2.41-35.66-16.85c-2.58-11.24,3.98-17.17,8.76-21.5
		c4.47-4.04,5.48-5.36,4.37-8.13l-1.54-3.84l-0.59,0.14l-6.15-26.83l27.9-6.4l6.15,26.83l-1.2,0.27l0.93,3.06
		c3.25,10.73,0.98,16.95-2.28,20.96l24.07-5.52l0.74,4.17C79.71,117.28,69.7,130.49,51.32,134.7z M43.67,111.04
		c0.35,1.39,2.18,1.28,3.67,0.94c0.57-0.13,1.31-0.38,1.57-0.8c0.14-0.23,0.56-1.2-0.1-3.83l-0.37-1.46
		c-0.57,0.46-1.12,0.88-1.63,1.27C43.74,109.5,43.46,109.98,43.67,111.04z"/>
	<path class="st1" d="M50.55,81.46c6.92,22.85-13.04,19.98-10.95,29.99c0.96,4.19,5.01,4.93,8.7,4.09c4.78-1.1,5.84-4.7,4.58-9.75
		l20.62-4.73c2.86,16.12-8.23,26.32-22.97,29.7c-15.24,3.5-28.48-0.7-31.56-14.15C15,99.26,37.14,97.96,32.22,85.66L50.55,81.46z
		 M29.31,78.46l-4.46-19.43l20.52-4.71l4.46,19.43L29.31,78.46z"/>
</g>
<g>
	<path class="st0" d="M134.51,111.02c-5.09,2.55-10.52,4.1-16.51,4.73c-12.34,1.3-23.16-1.51-31.28-8.13
		c-8.22-6.69-13.27-16.99-14.61-29.77c-2.58-24.56,12.35-42.8,37.14-45.41c24.47-2.57,43.33,12.6,45.88,36.89
		c0.97,9.2-0.66,18.42-4.48,25.87l9.38,7.69l-13.62,17.87L134.51,111.02z M111.73,57.96c-2.95,0.31-9.64,2.57-8.15,16.79
		c0.31,2.96,1.02,6.86,2.64,10.01l12.32-15.99l5.19,4.26c-0.01-0.13-0.03-0.26-0.04-0.39C123.3,68.94,121.29,56.96,111.73,57.96z"/>
	
		<linearGradient id="SVGID_1_" gradientUnits="userSpaceOnUse" x1="178.4365" y1="125.442" x2="178.4365" y2="41.624" gradientTransform="matrix(0.9945 -0.1045 0.1045 0.9945 -71.1468 12.0593)">
		<stop  offset="0" style="stop-color:#FABD77"/>
		<stop  offset="0.82" style="stop-color:#F0811B"/>
		<stop  offset="1" style="stop-color:#EB5D27"/>
	</linearGradient>
	<path class="st2" d="M147.53,115.22l-11.02-9.02c-3.49,2.01-9.26,4.78-17.8,5.67c-23.28,2.45-39.85-10.51-42.44-35.11
		c-2.41-22.98,11.57-39.55,34.34-41.94c23.99-2.52,40.2,12.84,42.43,34.09c0.94,8.95-0.67,19.08-5.79,27.02l9.22,7.56L147.53,115.22
		z M120.36,73.78l8.66,7.11c0.44-2.62,0.46-5.39,0.03-9.46c-1.31-12.5-7.72-19.64-16.76-18.69c-10.88,1.14-12.98,12.46-12.01,21.71
		c0.98,9.35,5.06,20.74,16.54,19.54c1.32-0.14,2.51-0.57,3.58-1.1l-9.1-7.37L120.36,73.78z"/>
</g>
<g>
	<path class="st0" d="M175.25,102.39c-14.26,0.64-23.21-8.7-23.94-24.96l-1.6-35.85l28.8-1.28l1.44,32.26
		c0.24,5.46,1.47,5.4,3.71,5.3c1.72-0.08,3.86-0.17,3.48-8.72l-1.3-29.17l28.8-1.28l2.69,60.33l-27.3,1.22l-0.09-2.1
		C186.08,100.85,181.48,102.11,175.25,102.39z"/>
	
		<linearGradient id="SVGID_2_" gradientUnits="userSpaceOnUse" x1="211.5506" y1="98.9091" x2="211.5506" y2="43.8133" gradientTransform="matrix(0.999 -0.0445 0.0445 0.999 -30.2895 8.0369)">
		<stop  offset="0" style="stop-color:#FABD77"/>
		<stop  offset="0.82" style="stop-color:#F0811B"/>
		<stop  offset="1" style="stop-color:#EB5D27"/>
	</linearGradient>
	<path class="st3" d="M214.49,94.61l-19.71,0.88l-0.35-7.86c-4.98,7.59-10.1,9.86-18.88,10.25c-11.64,0.52-19.52-6.29-20.2-21.61
		l-1.45-32.58l21.24-0.95l1.29,28.9c0.33,7.35,2.99,9.59,8.09,9.36c6.13-0.27,7.86-4.95,7.49-13.23l-1.15-25.73l21.24-0.95
		L214.49,94.61z"/>
</g>
<g>
	<path class="st0" d="M244.95,108.39c-20.15-1.51-32.76-15.02-31.36-33.63c0.7-9.28,4.8-17.34,11.57-22.69
		c2.76-2.19,5.92-3.88,9.35-5.06l-2.15-0.16l17.09-21.62l33.77,2.53l-25.49,18.81c6.53,1.83,12.03,5.26,16.17,10.14
		c5.92,6.99,8.65,16.72,7.68,27.4l-0.36,3.95l-1.02-0.08l-0.96,2.68C274.77,103.04,261.96,109.67,244.95,108.39z M243.06,85.21
		c1.09,1.56,2.89,2.46,4.74,2.6c1.36,0.1,3.2-0.15,4.28-1.92L243.06,85.21z M251.72,67.17c-0.81-0.71-1.82-1.18-2.89-1.26
		c-1.91-0.14-3.21,0.17-4.1,0.73L251.72,67.17z"/>
	
		<linearGradient id="SVGID_3_" gradientUnits="userSpaceOnUse" x1="203.6833" y1="106.7206" x2="203.6833" y2="29.7501" gradientTransform="matrix(0.9972 0.0747 -0.0747 0.9972 51.411 -16.9223)">
		<stop  offset="0" style="stop-color:#FABD77"/>
		<stop  offset="0.82" style="stop-color:#F0811B"/>
		<stop  offset="1" style="stop-color:#EB5D27"/>
	</linearGradient>
	<path class="st4" d="M238.67,80.55c-0.47,6.32,4.11,10.87,9.71,11.29c3.36,0.25,6.54-1.05,8.3-4.09l20.28,1.52
		c-4.66,12.98-18.45,16.35-30.88,15.42c-17.13-1.28-29.64-12.06-28.3-30c1.31-17.53,15.3-27.76,32.43-26.48
		c19.78,1.48,30.68,16.03,28.92,35.38L238.67,80.55z M252.25,27.96l21.3,1.6l-18.66,13.77l-13.96-1.05L252.25,27.96z M258.75,71.19
		c0.37-4.89-3.69-9.6-8.68-9.98c-6.32-0.47-10.15,2.83-10.58,8.54L258.75,71.19z"/>
</g>
<g>
	<path class="st0" d="M337.67,108.97c-20.1,2.07-34.89-9.01-36.8-27.57c-0.95-9.26,1.67-17.91,7.38-24.37
		c5.49-6.21,13.6-10.15,22.83-11.1c10.11-1.04,19.09,1.41,25.95,7.08c7.06,5.84,11.46,14.93,12.39,25.62l0.34,3.95l-1.02,0.1
		l-0.47,2.81C366.08,98.45,354.64,107.23,337.67,108.97z M331.72,86.49c1.35,1.35,3.28,1.91,5.12,1.72
		c1.36-0.14,3.13-0.71,3.87-2.65L331.72,86.49z M337.07,67.2c-0.93-0.55-2-0.84-3.06-0.73c-1.9,0.2-3.13,0.73-3.91,1.45L337.07,67.2
		z"/>
	<path class="st5" d="M326.79,82.65c0.65,6.3,5.96,9.97,11.55,9.4c3.36-0.34,6.25-2.18,7.45-5.49l20.23-2.08
		c-2.3,13.59-15.27,19.35-27.68,20.62c-17.08,1.76-31.3-6.65-33.14-24.54c-1.8-17.49,10.17-30.02,27.25-31.78
		c19.73-2.03,33.02,10.37,34.71,29.72L326.79,82.65z M344.9,69.9c-0.5-4.88-5.32-8.8-10.31-8.29c-6.3,0.65-9.5,4.57-8.91,10.27
		L344.9,69.9z"/>
</g>
<g>
	<path class="st0" d="M391.84,114.5c-18-2.57-27.81-11.89-26.93-25.56l0.28-4.34l12.08,1.73c-5.21-3.64-9.09-9.03-7.88-17.54
		c1.83-12.81,14.21-19.49,31.52-17.01c12.75,1.82,27.76,7.5,26.82,24.2l-0.25,4.38L418.04,79c5.69,3.81,10.06,9.36,8.82,17.98
		C425.92,103.62,420.61,118.62,391.84,114.5z M392.45,93.15c0.02,0.57,0.23,0.88,0.46,1.13c0.53,0.54,1.44,0.95,2.48,1.1
		c1.11,0.16,1.85,0.1,2.26,0.01C396.59,94.69,394.43,93.86,392.45,93.15z"/>
	<path class="st5" d="M389.5,91.96c-0.3,2.13,0.27,3.86,1.53,5.18c1.17,1.2,2.91,2.07,4.93,2.36c3.24,0.46,6.82-0.06,7.36-3.8
		c1.22-8.5-32.24-6.37-29.3-26.91c1.94-13.56,16.57-15.49,27.6-13.91c11.53,1.65,24.72,6.22,23.92,20.46l-19.12-2.74
		c0.04-1.75-0.49-3.06-1.47-4.13c-0.98-1.07-2.44-1.69-4.06-1.92c-3.64-0.52-6.13,0.26-6.51,2.89c-1.06,7.39,33.15,7.22,30.31,27.05
		c-1.58,11.03-11.76,17.21-31.19,14.43c-12.14-1.74-24.96-7.39-24.03-21.82L389.5,91.96z"/>
</g>
<g>
	<path class="st0" d="M436.92,100.41l5.16-26.94l1.29,0.25l0.4-3.19c1.39-11.07,5.94-15.87,10.5-18.25l-24.24-4.64l1-4.11
		c2.06-8.43,7-14.77,14.3-18.34c6.31-3.06,14.12-3.81,22.61-2.19c18.49,3.54,28.64,15.23,25.85,29.79
		c-2.15,11.26-10.5,14.04-16.59,16.07c-5.77,1.93-7.24,2.81-7.37,5.8l-0.18,4.09l0.53,0.1l-5.16,26.94L436.92,100.41z M462.44,45.4
		c-1.19-0.23-2.42-0.46-3.22,3.72l-0.26,1.38c0.76-0.21,1.48-0.38,2.14-0.54c3.9-0.93,4.13-1.26,4.33-2.24
		C465.68,46.33,463.94,45.69,462.44,45.4z"/>
	<path class="st1" d="M448.75,70.79c2.99-23.78,20.1-13.12,22.1-23.04c0.81-4.22-2.6-6.53-6.32-7.25c-4.72-0.9-7.14,1.96-8.12,7.08
		l-20.78-3.98c1.94-7.95,6.47-13.12,12.44-16.04c5.85-2.83,13.12-3.32,20.55-1.89c15.46,2.96,25.78,12.12,23.19,25.67
		c-3.32,17.37-24.02,9.66-24.59,22.98L448.75,70.79z M466.88,82.07l-3.73,19.48l-20.68-3.96l3.73-19.48L466.88,82.07z"/>
</g>
</svg>
